<svg viewBox="0 0 400 400" xmlns="http://www.w3.org/2000/svg" xml:space="preserve" style="fill-rule:evenodd;clip-rule:evenodd;stroke-linecap:round;stroke-linejoin:round;stroke-miterlimit:1.5"><path style="fill:none" d="M194.955 81.476H624.97v226.882H194.955z" transform="matrix(.9302 0 0 1.76303 -181.347 -143.644)"/><path d="M570.851 219.338c5.284 5.038 10.9 28.32 10.334 35.599-2.467 31.717-17.203 128.738-23.186 159.962-1.423 7.423-7.047 14.985-14.069 17.783-32.52 12.957-142.872 49.236-176.074 58.549-7.475 2.097-16.959 2.034-23.136-2.668-22.795-17.35-92.916-79.899-113.632-101.437-6.878-7.151-11.234-17.885-10.665-27.791 1.911-33.257 14.617-139.811 20.242-171.602 1.361-7.69 6.516-15.666 13.51-19.142 18.819-9.351 66.455-29.678 105.465-45.218 1.523-.606 5.237-.513 6.724-1.101 1.399-.554 2.786-2.598 4.15-3.134 13.69-5.381 25.475-9.822 33.257-12.452 9.604-3.246 28.647-1.994 36.929 3.853 27.704 19.557 106.335 86.092 130.151 108.799z" style="fill:#e9eef7" transform="translate(-199.64 -98.578)"/><path d="M381.668 427.391c-1.629 1.006-6.123 1.957-6.123 1.957l-11.301 28.322s-1.976.009-2.271.75c-.303.758.457 3.797.457 3.797l-9.42 23.61 9.926 6.401 178.527-59.171-15.657-.384-140.487-9.362s-2.099 3.121-3.651 4.08z" style="fill:#2562cd;fill-opacity:.78" transform="translate(-199.64 -98.578)"/><path d="m351.307 485.683 9.662-24.357s.139-1.863.396-2.51c.219-.554 1.143-1.372 1.143-1.372l11.434-28.824s-4.543-1.884-5.881-3.466c-1.338-1.581-2.149-6.025-2.149-6.025l-79.615-21.755-6.71-5.018-3.082 2.342-49.469-13.518 11.237 12.935 103.84 92.352 9.194-.784z" style="fill:#2462cd;fill-opacity:.78" transform="translate(-199.64 -98.578)"/><path d="M547.607 423.736c2.866-3.054 8.039-7.072 8.039-7.072l-34.749-150.372s-3.14 1.302-4.468 1.27c-1.264-.03-3.5-1.459-3.5-1.459L383.182 415.168s1.884 2.301 2.326 3.393c.397.983.326 3.164.326 3.164l156.207 10.457s2.701-5.391 5.566-8.446z" style="fill:#003692;fill-opacity:.78" transform="translate(-199.64 -98.578)"/><path d="M378.042 412.301c1.273.336 4.223 1.871 4.223 1.871l129.668-148.255s-2.384-2.95-2.997-4.706c-.623-1.787-.743-6.014-.743-6.014l-195.265-41.745s-.955 1.702-1.61 2.387c-.655.686-2.318 1.727-2.318 1.727l65.626 194.59s2.314-.146 3.416.145z" style="fill:#002462;fill-opacity:.78" transform="translate(-199.64 -98.578)"/><path d="M511.26 250.225c.876-.83 3.27-1.554 3.27-1.554l-75.838-137.949s-8.858.829-13.865-.011c-5.006-.839-12.233-3.672-12.233-3.672l-100.127 98.899s1.01 1.779 1.208 3.422a8.39 8.39 0 0 1-.186 2.994l195.024 42.018s1.744-3.196 2.747-4.147z" style="fill:#003795;fill-opacity:.78" transform="translate(-199.64 -98.578)"/><path d="M299.352 213.495c-.578-2.214-.049-4.643-.049-4.643l-49.864-30.389-8.99 8.549-19.245 156.755-.292 22.827 81.036-149.2s-2.055-1.824-2.596-3.899z" style="fill:#2560c7;fill-opacity:.78" transform="translate(-199.64 -98.578)"/><path d="M412.083 106.136 311.649 204.76s-2.555-2.141-6.384-1.509c-2.57.425-5.383 3.992-5.383 3.992L250.031 177.2l9.326-10.735 141.726-58.217 11-2.112z" style="fill:#2e6ddb;fill-opacity:.78" transform="translate(-199.64 -98.578)"/><path d="M305.549 218.048c.79.017 2.438-.193 2.438-.193l65.019 193.937s-2.747 1.606-3.856 2.586c-1.081.955-2.801 3.297-2.801 3.297l-82.264-22.502-3.894-2.647-2.497.899-49.318-13.491s.153-4.743-.852-8.221c-1.001-3.467-4.779-5.684-4.779-5.684l80.504-148.273s1.528.276 2.3.292z" style="fill:#091c3c;fill-opacity:.78" transform="translate(-199.64 -98.578)"/><path d="m556.295 414.794-34.276-149.491s2.148-2.492 2.572-4.014c.423-1.521-.032-5.115-.032-5.115l49.79-22.704s4.453 7.405 5.502 11.395c1.049 3.99.79 12.544.79 12.544l-23.215 157.315-1.131.07z" style="fill:#3a75dc;fill-opacity:.78" transform="translate(-199.64 -98.578)"/><path d="M574.084 232.078s.072-10.465-3.747-13.886c-22.672-20.304-130.498-107.474-130.498-107.474l76.234 138.149s3.803.409 5.162 1.425c1.358 1.016 2.99 4.671 2.99 4.671l49.859-22.885z" style="fill:#417bde;fill-opacity:.78" transform="translate(-199.64 -98.578)"/><path d="M558.21 250.889c.868 3.674 2.109 14.847 2.734 22.315.684 8.185.872 18.422 1.374 26.796.469 7.821 1.16 16.299 1.639 23.448.434 6.481.891 15.043 1.234 19.448.182 2.336 1.257 4.79.824 6.981-.434 2.191-2.192 4.682-3.425 6.165-1.029 1.237-3.017 1.595-3.976 2.735-.959 1.14-.844 3.854-1.778 4.105-.934.251-2.778-1.711-3.827-2.6-.938-.794-1.982-1.608-2.47-2.735-.891-2.054-2.269-6.306-2.872-9.587-.616-3.354-.664-7.064-.825-10.532-.159-3.423-.32-6.857-.139-10.279.182-3.447.572-7.096 1.234-10.406.644-3.217 1.647-6.663 2.742-9.453 1.002-2.555 2.708-4.903 3.826-7.29 1.075-2.293 2.312-4.823 2.883-7.03.52-2.01.507-4.13.542-6.207.046-2.655-.043-6.595-.27-9.723-.221-3.028-.868-6.349-1.096-9.042-.2-2.365-.089-4.994-.271-7.116-.162-1.886-.731-3.998-.823-5.618-.078-1.37-.186-3.378.271-4.107.439-.702 2.279-1.074 2.469-.268zm-1.851 64.694c.663-.473 1.97-1.335 2.362-.622.549.999.729 4.397.932 6.615.257 2.825.581 7.693.615 10.335.024 1.844-.049 4.036-.41 5.517-.301 1.23-1.176 2.546-1.759 3.366-.45.634-1.068 1.829-1.74 1.554-.672-.275-1.845-1.971-2.292-3.206-.536-1.482-.735-3.81-.925-5.687a43.607 43.607 0 0 1-.212-5.575c.052-1.893.281-4.148.522-5.784.202-1.366.441-2.951.926-4.036.43-.966 1.257-1.961 1.981-2.477zm-116.492 42.02c0 .595-1.675 2.111-1.372 3.246.469 1.753 2.481 6.471 4.184 7.272 1.703.801 4.053-1.575 6.036-2.465 2.395-1.075 5.541-2.685 8.332-3.984 4.506-2.095 15.099-9.442 18.702-8.588 3.603.853 2.151 9.101 2.918 13.71.771 4.641 1.118 9.951 1.71 14.134.52 3.67 4.649 8.544 1.843 10.966-5.091 4.394-26.295 12.074-32.393 15.4-1.812.988-3.763 2.996-4.193 4.556-.431 1.561.583 3.463 1.608 4.806 1.034 1.355 2.758 3.447 4.596 3.324 1.837-.124 4.139-2.974 6.428-4.065 3.361-1.6 9.31-3.733 13.735-5.54 4.279-1.748 8.54-3.541 12.813-5.304 4.928-2.033 11.373-4.842 16.753-6.895 5.12-1.953 11.54-4.126 15.523-5.419 2.757-.895 5.748-1.415 8.376-2.339 2.533-.89 6.177-.894 7.391-3.202 1.215-2.308-.105-8.489-.105-10.646 0-.765.105-2.294.105-2.294.088-1.899 3.481-4.535 2.875-4.925-.606-.389-4.431 1.723-6.512 2.586-2.006.832-4.601 2.008-5.977 2.594-.754.321-1.524.602-2.279.921-4.385 1.849-19.076 11.774-24.034 10.173-4.958-1.601-4.762-14.624-5.714-19.779-.676-3.655.329-8.368 0-11.15-.231-1.949-3.207-4.019-1.975-5.547 1.457-1.807 7.09-3.755 10.718-5.298 3.599-1.531 7.41-2.542 11.045-3.959 3.281-1.278 8.522-2.612 10.767-4.54 1.903-1.634 2.58-4.806 2.702-7.023.121-2.191-1.068-4.885-1.97-6.281-.729-1.129-2.14-2.428-3.443-2.097-2.421.616-7.394 3.856-11.088 5.791-3.84 2.012-7.909 4.333-11.954 6.28-4.039 1.945-8.379 3.26-12.315 5.406-4.332 2.361-9.433 6.686-13.672 8.763-3.692 1.809-7.883 2.346-11.765 3.699-4.066 1.418-9.337 3.574-12.632 4.806-2.371.885-6.178 2.097-7.139 2.582-.419.211 1.372-.145 1.372.325zM400 248.613c-8.862.782-21.44 5.333-27.638 10.641-5.592 4.789-7.326 13.645-8.752 20.474-1.382 6.62-1.954 13.601-.84 20.272 1.12 6.707 4.004 14.898 7.561 19.97 3.311 4.721 8.732 7.67 13.78 10.459 5.849 3.231 16.103 6.063 23.183 6.713 5.939.545 11.472.467 17.198-1.64 5.657-2.081 10.086-5.758 13.776-9.212 3.349-3.136 6.003-6.65 8.13-10.367 2.12-3.705 3.94-8.086 4.631-11.938.814-4.54 1.083-11.463.485-16.451-.555-4.626-1.448-9.856-3.839-13.478-2.553-3.867-5.61-8.376-9.402-11.601-3.863-3.286-8.812-6.884-13.781-8.816-6.245-2.429-16.338-5.745-24.492-5.026zm24.492 21.581c-5.205-4.124-15.774-5.919-23.693-4.698-7.919 1.221-19.996 7.193-22.295 13.922-2.375 6.951-2.051 14.46-.079 20.582 1.973 6.122 6.843 11.906 11.343 15.87 4.23 3.727 10.428 7.574 15.658 7.918 5.231.344 9.411-1.038 13.731-4.339 4.32-3.3 10.079-10.627 12.001-15.464 1.835-4.62 3.39-11.688 2.57-16.591-.888-5.315-4.384-13.356-9.236-17.2zm-34.415 11.922-3.717 11.624 34.132 10.245 4-12.08-34.415-9.789zm-147.705 35.23c2.264-3.463 4.474-13.754 6.566-20.677 2.107-6.973 4.156-14.682 6.079-21.163 1.758-5.928 3.762-12.026 5.457-17.728a792.043 792.043 0 0 0 4.714-16.483c1.147-4.211 1.528-6.202 2.604-10.059.979-3.513 3.332-11.254 4.435-14.73 1.197-3.773 3.635-10.007 3.337-10.937-.278-.87-5.921-4.1-8.544-5.666-1.605-.957-4.698-2.1-5.866-2.738a10.133 10.133 0 0 1-2.789-2.296c-.588-.707-3.257-3.516-3.688-3.575-.74-.102-.08 3.69-1.685 4.311-1.738.672-2.728 4.105-3.452 6.675-.828 2.94-2.61 6.382-3.304 9.093-.745 2.913-1.623 7.644-2.02 10.701-.372 2.871-1.418 7.145-1.567 9.955-.145 2.747.073 4.641.313 7.042.209 2.083 1.182 3.412 1.977 5.004.667 1.336 1.149 1.887.88 4.083-.233 1.895-3.639 4.348-4.922 6.621-1.38 2.447-2.535 5.708-3.587 8.416-1.001 2.577-1.873 5.204-2.725 7.834a203.707 203.707 0 0 0-2.482 8.241c-.807 2.913-1.878 6.093-2.36 9.233-.499 3.245-.546 7.212-.633 10.24-.076 2.641-.257 5.629.108 7.925.325 2.044 1.059 4.054 2.081 5.85 1.023 1.796 2.209 4.124 4.054 4.929 1.846.804 5.738 1.857 7.019-.101zm9.219-53.058c-.272 2.236-.923 3.948-1.814 7.317-.993 3.754-2.539 8.098-3.532 11.646-.833 2.974-2.554 10.098-3.338 12.416-.58 1.712-.607 4.481-1.736 4.685-1.13.204-4.122-1.776-5.042-3.461-.919-1.685-.924-4.122-.9-6.231.026-2.279.152-4.345.629-6.663.457-2.225.921-4.565 1.562-6.697.629-2.09 1.846-5.033 2.713-6.879.827-1.762 1.3-4.428 2.371-5.944 1.018-1.442 2.881-2.375 4.053-3.152 1.098-.728 3.099-.855 3.938-.361s1.236 2.166 1.096 3.324zm4.347-57.25c.335-.29 3.668 1.229 5.411 2.783 1.446 1.29 4.904 3.251 5.095 3.58.311.533-.875 4.712-1.42 7.05-.684 2.932-1.582 5.958-2.389 8.995-.681 2.561-2.027 7.032-2.874 9.39-.812 2.263-1.511 6.97-2.334 7.194-.521.143-4.026-.893-5.028-1.839-1.002-.945-.754-3.371-1.188-5.007-.705-2.659-1.597-3.705-1.597-6.251 0-2.339.085-5.745.085-7.982 0-2.134.484-3.729.961-5.692a58.807 58.807 0 0 1 1.904-6.324c.87-2.397 3.002-5.574 3.374-5.897zm-3.968 145.674c.738-2.951 6.543-12.616 9.51-17.531 4.548-7.534 12.529-20.287 17.015-28.513 3.298-6.048 7.017-13.37 9.898-19.075 2.657-5.261 5.466-10.933 7.611-15.075 1.58-3.05 2.567-8.875 4.374-9.297 1.807-.421 5.578 5.053 6.287 7.389.708 2.336-1.727 6.168-2.746 8.483-1.406 3.194-3.762 6.618-6.183 10.403-2.427 3.794-5.642 8.611-7.577 11.543-1.382 2.094-3.848 6.532-3.304 8.31.544 1.778 3.69.823 6.154 1.396 3.04.707 7.914 1.531 11.196 2.249 2.945.644 6.415 1.531 8.823 1.978 1.858.345 4.149-.117 5.624.704 1.474.821 2.988 2.541 3.224 4.222.235 1.682-.892 4.197-1.813 5.868-.896 1.628-3.418 1.781-4.781 2.98-1.35 1.188-2.57 2.192-3.922 3.379-1.423 1.25-4.112 8.204-5.263 9.859-1.572 2.262-1.615 2.033-2.875 4.24-.775 1.357-.556 4.389-1.42 5.69-2.39 3.6-.489 3.594 1.751 4.07 2.91.618 6.984 1.435 11.027 2.367 3.944.909 8.474 2.187 12.451 2.939 3.983.754 8.147 2.455 11.252 3.499 4.407 1.482 4.852 3.625 5.255 5.984.361 2.112.306 4.026.083 5.285-.309 1.75-1.977 2.164-5.252 1.418-2.853-.649-7.865-1.963-11.832-3.133-3.791-1.118-8.002-2.465-11.396-3.72-3.14-1.16-7.508-2.107-10.425-3.049-2.765-.892-7.226-2.185-10.067-2.796-3.271-.705-5.273-1.251-8.844-2.287-3.474-1.008-7.714-2.133-11.208-3.071-3.55-.953-4.971-1.418-8.441-2.237-3.308-.78-6.595-1.121-9.086-2.006-1.864-.663-5.58-.546-5.1-2.465zm12.663-5.842c-.093-1.642 1.115-4.532 2.527-7.013 1.461-2.566 4.854-7.83 6.436-10.099 1.398-2.008 2.067-4.203 3.373-6.132 1.24-1.832 2.831-6.076 4.86-6.957 2.106-.914 3.343 1.742 6.309 1.742 3.226 0 6.059 1.351 8.516 1.547 1.477.118 6.543.663 7.881.929 2.762.55 5.048-.52 4.976.751-.084 1.487-3.882 5.702-5.146 8.361-1.109 2.333-2.848 4.843-4.347 6.947-1.504 2.111-2.975 3.743-4.678 5.718-1.665 1.93-3.142 4.661-4.453 6.217-.992 1.178-1.911 2.768-3.411 3.117-1.856.432-5.381-.151-7.719-.526-2.154-.345-4.447-1.285-6.312-1.722-1.609-.378-3.406-.423-4.875-.903-1.396-.456-3.853-.511-3.937-1.977zm3.091 71.631c-.705-1.546 2.673-10.096 3.599-14.069.653-2.801 1.465-4.473 2.553-6.375.95-1.661 4.276-5.183 5.4-4.976 2.005.367 4.229 2.166 6.231 3.353 1.879 1.113 2.851 2.968 3.864 4.513.899 1.371.155 3.611-.242 5.202-.564 2.263-1.596 4.645-2.652 7.566-1 2.764-1.851 6.472-1.593 8.673.214 1.827 1.763 3.318 3.141 4.536 1.639 1.447 4.63 2.997 6.696 4.151 1.845 1.031 4.52 3.197 5.702 2.774 1.181-.424 1.249-3.605 1.385-5.314.132-1.651.219-3.205.617-4.616.398-1.411-1.742-3.425-.21-3.514 1.609-.094 4.97 1.386 6.972 2.375 1.818.898 4.496 1.967 5.674 3.216 1.112 1.179 2.063 3.161 2.208 4.774.16 1.774.033 5.184-.265 7.216-.299 2.035-1.549 3.994-1.256 4.691.542 1.288 3.233 2.792 4.308 3.686 1.705 1.417 5.295 3.628 7.621 5.045 2.054 1.251 4.101 2.904 5.938 3.269 1.518.301 2.306.377 2.749-.531.758-1.553 2.51-5.762 3.237-7.797.634-1.775 1.723-3.648 2.383-5.125.553-1.235 1.333-4.043 2.424-4.842 1.25-.916 2.611-.699 4.647-.727 2.035-.029 5.006 1.054 6.712 2.074 1.706 1.021 4.462 3.118 5.303 4.589.496.87-1.072 1.183-1.337 2.331-.265 1.148-.957 2.682-1.609 4.091-.837 1.812-2 4.594-2.976 6.902-1.056 2.494-2.4 5.508-3.357 8.066-.896 2.392-2.598 7.514-3.568 7.476-.932-.037-5.919-3.113-8.878-4.696-3.082-1.648-5.324-3.46-8.432-5.39-3.606-2.241-8.725-5.211-12.397-7.517-3.254-2.042-6.654-4.372-9.639-6.316-2.751-1.79-5.78-3.728-8.272-5.343-2.229-1.445-4.502-2.827-6.681-4.347-2.362-1.647-4.994-3.79-7.488-5.536-2.447-1.713-4.97-3.315-7.476-4.941-3.146-2.042-10.17-6.695-11.036-8.597zm107.241 37.722c1.97-.325 7.626-2.016 15.611-4.101 7.621-1.99 16.305-4.865 23.404-7.248 6.74-2.263 14.072-4.859 19.526-6.654 4.176-1.375 9.014-2.887 12.07-3.997 2.055-.745 4.378-1.17 5.89-2.02 1.127-.634 2.783-2.782 3.93-2.186 2.163 1.123 4.239.952 6.478.773 1.643-.132 6.442-.909 6.876-.846.463.068.447 1.206 1.422 1.785.974.579 2.865.789 2.913 1.298.097 1.017-4.067 1.694-5.86 2.504-1.808.817-5.226 1.179-7.31 1.333-2.168.161-3.248.018-5.129.346-1.661.29-2.718 1.257-4.074 2.033-1.546.885-3.35 2.132-4.849 3.597-1.711 1.673-4.149 3.533-6.059 5.435-1.941 1.933-3.623 3.447-5.498 5.15-1.688 1.533-4.13 3.773-5.643 4.92-1.219.924-4.516 2.619-2.987 2.568 1.841-.06 9.704-2.22 14.629-3.66 5.051-1.477 11.585-3.144 15.559-4.418 2.755-.883 5.761-1.622 8.679-2.662 2.657-.946 5.423-1.743 7.922-2.426 2.354-.644 4.862-1.146 7.03-1.305 1.903-.139 6.479-1.148 6.404-.636-.037.25-2.295 1.962.748 3.132 1.041.4-3.777 2.249-5.288 2.731-1.94.619-4.649 1.429-6.917 1.983-2.103.513-3.895 1.158-6.006 1.637a157.74 157.74 0 0 0-7.25 1.836c-3.087.847-8.472 1.822-11.232 2.702-2.101.67-5.425 1.473-7.365 2.027-1.761.504-6.99 2.115-8.77 2.546-2.694.651-2.972.887-6.39 1.83-3.263.901-7.272 1.885-10.295 2.733-2.79.784-6.081 1.426-8.511 2.374-2.222.868-6.516 3.253-8.724 4.156-2.794 1.142-6.743 2.33-9.964 3.143-2.861.721-4.423 1.512-6.557 1.639-1.413.084-2.83-.599-3.652-1.34-.822-.74-1.223-3.104-.897-3.637.215-.352 4.057-1.419 5.528-1.959 1.99-.729 5.157-1.709 7.514-2.438 2.17-.671 5.712-1.45 7.908-2.027 2.249-.592 2.971-1.012 5.037-1.956 2.022-.923 3.27-1.784 5.053-3.111 1.824-1.356 3.727-3.049 5.428-4.391 1.575-1.243 3.263-2.439 4.779-3.66 1.47-1.184 3.137-2.582 4.316-3.666.971-.892 2.145-2.027 2.759-2.835.447-.589 1.445-1.818.926-2.017-.519-.199-2.722.433-4.04.82-1.806.531-4.493 1.695-6.796 2.366-2.709.788-6.548 1.558-9.455 2.364-2.686.744-5.293 1.758-7.987 2.467-2.771.729-6.047 1.239-8.633 1.906-2.322.598-4.564 1.482-6.883 2.094-2.647.697-6.303 1.427-8.997 2.094-2.399.594-5.282 1.575-7.164 1.908-1.355.239-3.057.316-4.127.086-.887-.192-1.774-1.614-1.849-2.226-.075-.612.178-3.405 1.134-3.408 3.223-.011 8.243-.918 11.685-1.486zm111.611-306.555c-1.212-.195-.806 4.057-.215 5.777.595 1.735 2.247 4.214 3.978 5.95 2.331 2.34 5.524 5.267 8.392 7.927 3.144 2.916 5.699 4.383 8.524 7.322 2.747 2.857 7.948 6.92 10.11 9.761 2.008 2.639 4.354 5.424 6.129 8.225 1.863 2.941 4.386 5.982 5.98 8.887 1.472 2.683 3.157 6.111 3.453 8.279.193 1.413.289 3.741-1.539 4.798-1.416.819-3.976.054-6.541-1.552-2.439-1.527-7.026-5.529-9.254-7.35-2.33-1.905-4.394-4.749-6.725-6.422-2.104-1.51-4.996-3.643-7.061-5.082-2.004-1.396-3.355-3.141-5.255-4.546-1.838-1.359-4.409-3.351-5.478-3.22-1.07.131-1.512 3.377-1.01 5.003.598 1.936 2.226 5.082 3.859 7.211 1.896 2.472 4.825 5.302 7.517 7.617 2.763 2.375 5.089 4.652 7.789 6.694 2.372 1.796 5.283 4.402 7.4 6.493 2.132 2.105 5.129 3.706 7.394 5.477 2.19 1.714 4.129 3.112 6.395 4.417 2.121 1.223 5.13 3.112 7.197 3.418 2.067.305 4.638-.651 6.008-1.783s2.078-3.189 2.212-5.009c.136-1.836-.419-5.313-.79-7.334a80.448 80.448 0 0 0-2.185-8.879c-.79-2.534-2.991-4.635-3.786-7.005-.772-2.303-2.781-4.12-3.987-6.228-1.263-2.205-4.408-5.33-6.39-7.548-2.329-2.606-4.087-6.039-6.582-8.679-2.247-2.379-3.088-4.716-5.587-6.623-2.4-1.831-5.238-3.377-7.402-5.216-2.048-1.74-3.753-3.914-5.582-5.818-1.796-1.869-4.655-4.18-6.517-5.983-1.931-1.871-3.506-3.243-5.072-5.241-1.178-1.503-3.869-3.495-5.379-3.738zm-123.391 38.671c2.566-.974 8.158.584 12.206.173 4.864-.493 11.982-2.005 16.982-3.131 4.394-.99 8.65-2.526 13.018-3.627 4.577-1.153 10.529-2.166 14.444-3.293 3.105-.894 5.921-2.665 9.05-3.471 3.359-.865 7.958-1.091 11.105-1.72 2.628-.524 5.925-1.444 7.776-2.049 1.168-.382 2.723-2.321 3.331-1.58.607.74-.318 4.303.313 6.024.63 1.721 3.87 3.007 3.469 4.302-.4 1.295-3.7 2.797-5.871 3.469-3.228.997-9.049 1.426-13.492 2.514-4.497 1.101-8.975 2.797-13.493 4.094-5.026 1.443-11.713 2.988-16.66 4.564-4.417 1.407-8.813 3.632-13.02 4.893-3.994 1.197-8.332 1.412-12.221 2.672-3.85 1.248-8.549 5.082-11.112 4.89-2.459-.184-2.842-4.03-4.269-6.042-1.502-2.118-4.485-4.552-4.745-6.666-.259-2.114 1.067-5.211 3.189-6.016zm9.002-68.354c-1.053 2.119-8.356 11.504-11.289 15.918-2.271 3.417-4.383 7.089-6.309 10.567-1.867 3.37-2.994 5.734-4.822 9.125-1.837 3.409-3.954 7.988-5.499 10.485-.67 1.082-3.94 5.663-4.859 6.202-1.058.62-5.346 2.011-5.968 2.359-3.182 1.779-6.382 3.656-6.654 3.115-.186-.368 3.497-4.833 4.93-7.463 1.184-2.172 4.225-6.413 4.942-7.996.415-.914 2.303-3.932 1.327-4.522-1.133-.685-4.782 1.549-5.543 1.948-2.167 1.134-3.795 2.672-7.224 4.898-4.626 3.004-12.318 8.031-17.302 11.612-4.334 3.114-9.25 7.27-12.603 9.874-2.492 1.934-5.55 4.57-7.517 5.749-1.282.769-3.485 1.84-4.286 1.324-.801-.516-.967-3.005-.521-4.419.472-1.494 2.055-3.179 3.35-4.543 1.566-1.649 3.875-3.756 6.043-5.349 2.392-1.758 5.74-3.532 8.31-5.2 2.401-1.557 4.699-3.269 7.112-4.805 2.48-1.579 5.513-3.266 7.771-4.667 1.948-1.209 3.82-2.538 5.773-3.739 1.99-1.223 4.268-2.491 6.167-3.604 1.742-1.022 6.762-3.58 6.472-4.139-.29-.559-5.767-.481-8.078-.239-3.586.377-4.321 1.044-8.875 1.346-2.704.179-5.509.993-8.165 1.411-2.564.404-4.699 1.128-6.932 1.302-1.878.146-5.318 1.03-5.629.515-.312-.515 2.641-2.469 3.76-3.603 1.02-1.034 1.813-2.314 2.953-3.204a13.986 13.986 0 0 1 3.885-2.138c2.077-.733 6.079-1.775 8.58-2.261 2.113-.41 4.286-.407 6.424-.652 2.477-.285 6.051-.768 8.441-1.053 1.963-.233 3.922-.517 5.894-.654 2.211-.152 5.582-.132 7.368-.262 1.127-.082 2.395.084 3.35-.52.983-.622 1.847-2.039 2.551-3.211.738-1.227 1.302-2.744 1.875-4.15.627-1.539 1.236-3.699 1.887-5.082.539-1.144.923-2.583 2.021-3.211 1.788-1.023 6.722-2.284 8.709-2.927 1.061-.343 2.218-.428 3.214-.931 1.363-.69 5.844-4.97 4.966-3.206z" style="fill:#f8c99e;fill-opacity:.8;stroke:#5e3107;stroke-width:1px" transform="translate(-199.64 -98.578)"/><path d="M123.053 217.44c15.676-.202 12.177 6.536 23.425 22.381 0 0-10.005-14.843-13.91-18.573-2.47-2.36-9.515-3.808-9.515-3.808zm53.75 13.91c0 .814-1.605 7.106-.701 8.009 3.243 3.244 8.97 1.841 12.597-.008 1.042-.531 3.222-1.073 3.607-2.323.306-.989-1.92-3.335-2.775-3.676-3.533-1.412-8.251-2.019-12.091-2.019m-9.912 1.855c-5.686 0-5.463 9.241-.203 10.018 1.316.194 5.164-.119 5.828-1.468.347-.704-.609-1.484-.918-1.994-.824-1.361-3.058-5.593-4.745-5.593m116.007-66.849c-1.58.97-5.088 8.626-.074 9.19 3.277.368 7.446-1.453 9.587-3.86 2.052-2.305 1.062-3.339-.127-4.483-3.065-2.952-6.808-5.82-6.808-1.11 0 0-1.842-.189-2.578.263zM216.111 8.213c-4.297 2.276-7.168 9.13-11.949 16.197-3.384 5.002-5.636 11.646-8.536 16.968-.708 1.3-4.3 5.444-3.423 7.198.327.654 2.422.227 2.779.03 3.421-1.884 6.647-3.905 9.443-6.706 4.587-4.595 9.332-8.45 13.409-13.484 1.25-1.543 3.307-3.176 4.182-4.953 2.064-4.189-1.156-6.77 3.131-9.449.608-.38 6.306-2.289 4.8-3.256-1.506-.967-9.691-4.739-13.836-2.545zM78.174 159.683c2.085 0 6.388.093 7.516-2.198.432-.877 1.007-5.955.497-6.083-3.701-.931-10.766 3.896-8.596 8.236.308.615 1.39 1.01 1.878 1.498m28.324 37.865c-.952 0-2.222-.158-3.019.087-.231.072-.089 1.484-.089 1.675 0 2.311.144 3.106 2.029 4.711 1.829 1.557 4.657 1.384 6.856.962 2.144-.411 2.236-2.678 1.466-4.22-1.182-2.363-4.289-4.991-7.211-3.54M71.208 290.26c0-3.056 6.678-3.737 8.575-2.803 1.945.957 1.861 1.682 2.726 3.413.54 1.08 2.703 2.273 1.842 3.121-.751.74-6.92 1.03-7.872 1.03-1.977 0-4.052-1.508-6-1.508-1.423 0-3.068.207-4.39-.237-2.988-1.005-5.892-3.941-1.595-6.104.167-.084 1.012 1.711 1.486 1.874.861.297.071-.742.35-.82.738-.206 4.632.847 4.878 2.034zm-7.282-87.297c-.747 0-.25 5.929.341 6.52.528.529 1.199-.935 1.276-1.246.321-1.293.345-4.89-1.701-4.89m66.597-60.85c.726.898 2.875.676 4.178.676 1.654 0 5.059.496 6.351-.816.695-.705-3.875-2.17-4.057-2.23-.983-.325-5.373-2.97-6.651-2.341-.763.377-.547 3.813.179 4.711zm-3.209-.476c-.947-.05-1.289 2.331-2.065 3.373-2.025 2.717.342 2.326 2.891 2.547.379.033 2.739.512 3.12.125.37-.375-.244-2.018-.332-2.372-.627-2.492-2.668-3.623-3.614-3.673zm-1.626 14.407c-1.994-1.994-9.743.821-7.881 4.546.375.749 1.997 2.376 2.699 2.903 1.591 1.193 5.295 3.897 7.293 3.598 4.087-.611.198-6.129-.592-7.702-.675-1.344-.179-2.687-1.126-3.634m-12.951-21.254c0 2.056-1.334 4.294-1.334 6.35 0 1 .402 3.942 1.151 4.691 1.604 1.604 7.855-.069 8.843-2.074 2.445-4.965-.007-11.724-6.036-11.724-1.419 0-1.481 2.189-2.624 2.757zm15.512-28.406c-1.837-.48-5.925-.828-7.77 0-.089.04-.07 1.633-.117 1.795-.57 1.986-.387 4.158 1.807 5.078 3.619 1.518 4.812.261 7.133-1.41.849-.611 2.621-1.239 2.2-2.584-.617-1.972-1.852-2.513-3.253-2.879zm-17.705 6.669c-.585.181-1.181.176-1.798.176-3.019 0-2.579-2.584.323-3.018.292-.043 2.058-.858 2.378-.539.521.521-1.182 3.513-1.182 4.382m159.174-69.495c0 2.071 2.893 5.78 4.91 6.284.623.156 2.319.916 2.841.112 1.046-1.611-3.203-7.332-4.489-7.776-.702-.243-.552 1.765-1.07 2.021-.526.259-2.192.076-2.192-.641zm-16.59-13.028c-1.828-.629-5.504-2.078-5.659-1.27-.206 1.071-.282 3.365.561 4.074 2.327 1.956 5.954.627 8.595 1.767.216.092 2.644 1.257 2.849.801.354-.789-.445-2.144-.702-2.753-1.355-3.218-3.76-1.971-5.644-2.619zm19.239 51.824c-.254.726-1.976 1.586-1.976 2.352 0 2.448 3.465 4.637 5.672 3.169 2.449-1.629-1.72-5.521-3.696-5.521zM183.5 122.555c1.212 1.298 10.378 6.99 11.863 6.589.973-.263 4.555-.976 5.103-2.09.321-.652-1.573-1.569-1.871-1.868-3.212-3.211-6.077-3.83-10.504-3.83-.608 0-5.67.043-4.591 1.199zm3.694 5.108c-1.817-.298-5.99.187-8.743 1.036-.601.185.429 2.336.578 2.634.878 1.756 3.818 3.335 5.692 3.569 2.988.372 6.569-1.834 4.633-4.417-.257-.343-1.581-2.727-2.16-2.822zm-6.029 7.624c-.395-.006-1.104 1.155-1.38 1.431-2.634 2.626-.264 3.579 3.221 4.302 1.918.397.378-4.701-.884-5.337m176.805-4.756c0-3.076-5.121-3.142-6.472-5.629-1.121-2.062-1.237-5.527-1.237-7.832 0-.083-.203-2.272-.854-1.631-.343.338-.422 1.806-.593 2.305-.464 1.356-2.013 3.814-1.4 5.388 1.815 4.663 6.079 7.469 10.509 9.075.117.043 7.038 2.063 7.047 2.043.188-.418-.77-.869-1.062-1.046-.937-.567-3.928-2.492-4.917-2.938-.321-.144-1.021.265-1.021.265zm-12.945-26.325c0-1.493-2.411-6.991-3.382-6.033-.257.252-.055 2.656 0 2.893.399 1.736.816 3.435 1.172 5.152.2.965-.435 2.54 0 3.411.1.201 2.168.444 2.327.282.21-.212 0-2.517 0-2.714 0-1.011-.117-1.977-.117-2.991zm5.194 87.46c-.168-1.542 0-4.48 0-6.72 0-.382-.154-4.056-.491-3.723-1.387 1.366-4.561 7.677-2.08 9.13.649.38 3.574 5.347 3.574 3.844 0 0-.905-1.629-1.003-2.531zm-19.736-22.445c-.114 1.308-.862 6.132 0 7.98.221.473 3.845 1.75 4.193 1.045.447-.909-.677-2.005-1.004-2.669-1.227-2.496-2.506-3.393-2.506-6.224 0 0-.663-.363-.683-.132zm-1.286 136.713c-3.202 0-4.671.287-7.76-.555-2.342-.638-6.26-3.461-8.8-1.812-.686.446-1.27 4.467-1.097 5.506.321 1.926 2.63 3.773 3.784 5.228 1.966 2.48.792 5.921 5.317 6.519 4.132.545 13.3-1.989 15.096-6.286 1.886-4.514-3.19-7.758-6.54-8.6zm1.419-55.766v4.674c0 .65 2.777 1.908 3.366 1.309.563-.571.273-2.374.273-3.089 0-.509.326-1.841-.285-1.841m-44.514-62.54c-1.071 0-2.464-.258-3.505 0-2.05.509-3.175 4.969-2.426 6.774 1.197 2.89 5.144 3.73 7.788 4.06 3.828.477 3.756-.345 5.636-3.642.718-1.26 1.771-3.882 1.289-5.42-.149-.479-1.588-.43-1.959-.493-2.376-.399-4.203-.174-5.34-.388-.567-.106-1.483-.891-1.483-.891zM230.762 280.5c0 1.371-.744 5.561.097 6.402 1.288 1.287 6.777 2.027 7.536-.199.305-.892-.252-1.887-.332-2.734-.139-1.455.206-2.936-.263-4.363-1.78-5.426-6.481-.791-7.842 1.895m-36.833 58.226c-.713-.287-4.134-.164-4.841.889-.681 1.015.047 4.068 1.142 4.471 4.716 1.739 11.217-2.335 3.699-5.36z" style="fill:#f0eee1;fill-opacity:.41" transform="translate(0 1)"/><path d="M570.851 219.338c9.499 8.29 11.491 22.63 10.334 35.599-2.827 31.687-17.203 128.738-23.186 159.962-1.423 7.423-7.047 14.985-14.069 17.783-32.52 12.957-142.872 49.236-176.074 58.549-7.475 2.097-16.959 2.034-23.136-2.668-22.795-17.35-92.916-79.899-113.632-101.437-6.878-7.151-11.234-17.885-10.665-27.791 1.911-33.257 14.617-139.811 20.242-171.602 1.361-7.69 6.516-15.666 13.51-19.142 18.819-9.351 60.161-27.35 99.171-42.89 1.522-.606 8.43-1.12 13.018-3.429 1.344-.677 4.694-3.661 6.058-4.198 13.69-5.38 23.567-8.758 31.349-11.388 9.604-3.246 28.647-1.994 36.929 3.853 27.704 19.557 105.358 87.163 130.151 108.799z" style="fill:none;stroke:#543737;stroke-width:4px" transform="translate(-199.64 -98.578)"/><ellipse cx="517.974" cy="256.81" rx="5.672" ry="5.879" style="fill:#628cec;fill-opacity:.53" transform="matrix(1.22313 -.32784 .3474 1.2961 -405.931 -3.59)"/><ellipse cx="517.974" cy="256.81" rx="5.672" ry="5.879" style="fill:#6f91e8;fill-opacity:.53" transform="matrix(.98151 .60975 -.64505 1.03834 -236.005 -470.389)"/><ellipse cx="517.974" cy="256.81" rx="5.672" ry="5.879" style="fill:#6d8bd7;fill-opacity:.53" transform="matrix(1.4815 .38226 -.32086 1.24353 -508.578 -195.307)"/></svg>